<svg id="visual" viewBox="0 0 675 900" width="675" height="900" xmlns="http://www.w3.org/2000/svg" xmlns:xlink="http://www.w3.org/1999/xlink" version="1.1"><rect x="0" y="0" width="675" height="900" fill="#F5F2EB"></rect><defs><linearGradient id="grad1_0" x1="0%" y1="100%" x2="100%" y2="0%"><stop offset="30%" stop-color="#bedae6" stop-opacity="1"></stop><stop offset="70%" stop-color="#bedae6" stop-opacity="1"></stop></linearGradient></defs><defs><linearGradient id="grad1_1" x1="0%" y1="100%" x2="100%" y2="0%"><stop offset="30%" stop-color="#bedae6" stop-opacity="1"></stop><stop offset="70%" stop-color="#f5f2eb" stop-opacity="1"></stop></linearGradient></defs><defs><linearGradient id="grad2_0" x1="0%" y1="100%" x2="100%" y2="0%"><stop offset="30%" stop-color="#bedae6" stop-opacity="1"></stop><stop offset="70%" stop-color="#bedae6" stop-opacity="1"></stop></linearGradient></defs><defs><linearGradient id="grad2_1" x1="0%" y1="100%" x2="100%" y2="0%"><stop offset="30%" stop-color="#f5f2eb" stop-opacity="1"></stop><stop offset="70%" stop-color="#bedae6" stop-opacity="1"></stop></linearGradient></defs><g transform="translate(675, 900)"><path d="M-365.6 0C-349.7 -24.3 -333.8 -48.5 -327.6 -74.8C-321.3 -101 -324.8 -129.3 -315.3 -151.9C-305.9 -174.5 -283.5 -191.4 -267.4 -213.2C-251.3 -235 -241.5 -261.7 -223.8 -280.7C-206.1 -299.7 -180.5 -311.1 -155.8 -323.4C-131 -335.8 -107.2 -349.3 -81.4 -356.5C-55.5 -363.7 -27.8 -364.6 0 -365.6L0 0Z" fill="#d7e8df"></path><path d="M-182.8 0C-174.9 -12.1 -166.9 -24.3 -163.8 -37.4C-160.7 -50.5 -162.4 -64.6 -157.7 -75.9C-152.9 -87.2 -141.7 -95.7 -133.7 -106.6C-125.7 -117.5 -120.8 -130.8 -111.9 -140.3C-103.1 -149.8 -90.3 -155.5 -77.9 -161.7C-65.5 -167.9 -53.6 -174.6 -40.7 -178.2C-27.8 -181.8 -13.9 -182.3 0 -182.8L0 0Z" fill="#bedae6"></path></g><g transform="translate(0, 0)"><path d="M365.6 0C348.4 24.5 331.1 49 321.7 73.4C312.4 97.9 310.9 122.4 304.5 146.7C298.1 170.9 286.7 195.1 272.1 217C257.4 238.9 239.6 258.5 219.5 275.2C199.4 291.9 177.1 305.6 154 319.8C131 334.1 107.2 348.7 81.4 356.5C55.6 364.2 27.8 364.9 0 365.6L0 0Z" fill="#d7e8df"></path><path d="M182.8 0C174.2 12.2 165.5 24.5 160.9 36.7C156.2 49 155.5 61.2 152.3 73.3C149.1 85.5 143.4 97.5 136 108.5C128.7 119.4 119.8 129.3 109.7 137.6C99.7 145.9 88.5 152.8 77 159.9C65.5 167 53.6 174.4 40.7 178.2C27.8 182.1 13.9 182.4 0 182.8L0 0Z" fill="#bedae6"></path></g></svg>